<svg width="16" height="16" viewBox="0 0 16 16" fill="none" xmlns="http://www.w3.org/2000/svg">
<g clip-path="url(#clip0)">
<rect width="16" height="16" fill="white"/>
<path d="M9.70015 2.07328C9.79374 2.11905 9.76132 2.76902 9.76883 2.88553C9.80993 3.52314 9.7917 4.15256 9.83273 4.78915L9.83388 4.80694C9.88573 5.61134 9.93789 6.42052 9.95878 7.22613C9.96636 7.51838 9.91911 7.8071 9.92693 8.10039C9.93712 8.48255 9.9018 8.87435 9.89207 9.25741C9.88171 9.66531 9.90622 10.0764 9.87636 10.4834C9.85061 10.8346 9.77623 11.2105 9.79896 11.5632L9.86228 12.5456L9.89038 12.9815C9.89585 13.0663 9.93842 13.2189 9.88102 13.2925C9.84739 13.3356 9.84566 13.3781 9.80766 13.4213C9.78237 13.4501 9.76296 13.4454 9.72497 13.4561C9.55604 13.5035 9.38186 13.5644 9.22019 13.6323C8.84878 13.7883 8.47818 13.9411 8.11819 14.1215C7.89661 14.2326 7.65617 14.2857 7.422 14.3689C7.23208 14.4364 7.05113 14.4907 6.8701 14.5743C6.67959 14.6624 6.49913 14.7685 6.31033 14.8603C6.10948 14.958 5.90642 15.0846 5.69568 15.1564C5.62318 15.1811 5.58209 15.216 5.5071 15.2208C5.4996 15.2213 5.48693 15.2261 5.4955 15.2183C5.58086 15.1405 5.52482 14.9887 5.52716 14.8732C5.53849 14.3142 5.53464 13.7536 5.52348 13.1944C5.50582 12.3092 5.55696 11.4331 5.49982 10.5467C5.43114 9.48106 5.33852 8.41398 5.29522 7.34706C5.23704 5.91359 5.2553 4.47237 5.1631 3.04193C5.39645 3.02689 6.06204 3.04127 6.28654 2.96951C6.3841 2.93833 6.77416 2.76168 6.87595 2.75512C7.04325 2.74434 7.18273 2.6922 7.34236 2.66789C7.88641 2.58505 8.41001 2.3714 8.94687 2.24597C9.19156 2.1888 9.45037 2.08938 9.70015 2.07328Z" fill="#DDDDDD"/>
<path d="M9.70015 2.07328C9.57224 2.01074 9.47578 1.8614 9.36079 1.77502C9.22877 1.67585 9.06681 1.58503 8.9105 1.52964C8.47931 1.37686 8.03334 1.29122 7.60969 1.11369C7.25629 0.965598 7.09784 0.809723 6.72794 0.709985C6.62195 0.735314 6.52505 0.781525 6.42442 0.822653C6.20981 0.910365 5.99405 0.959244 5.76694 1.00244C5.51887 1.04962 5.27308 1.09075 5.02184 1.11789C4.77877 1.14414 4.5325 1.152 4.28857 1.16772C4.02042 1.185 3.76021 1.23233 3.49601 1.27403C3.34825 1.29735 3.20491 1.33937 3.05743 1.36329C2.97303 1.37699 2.89193 1.4038 2.80808 1.41982C2.7533 1.43028 2.6977 1.42906 2.64401 1.44452C2.51232 1.48245 1.94674 1.4687 1.86512 1.59351M9.70015 2.07328C9.79374 2.11905 9.76132 2.76902 9.76883 2.88553C9.80993 3.52314 9.7917 4.15256 9.83273 4.78915M9.70015 2.07328C9.45037 2.08938 9.19156 2.1888 8.94687 2.24597C8.41001 2.3714 7.88641 2.58505 7.34236 2.66789C7.18273 2.6922 7.04325 2.74434 6.87595 2.75512C6.77416 2.76168 6.3841 2.93833 6.28654 2.96951C6.06204 3.04127 5.39645 3.02689 5.1631 3.04193M9.83273 4.78915L9.83388 4.80694M9.83273 4.78915C9.83312 4.79508 9.8335 4.80101 9.83388 4.80694M9.79896 11.5632C9.77623 11.2105 9.85061 10.8346 9.87636 10.4834C9.90622 10.0764 9.88171 9.66531 9.89207 9.25741C9.9018 8.87435 9.93712 8.48255 9.92693 8.10039C9.91911 7.8071 9.96636 7.51838 9.95878 7.22613C9.93789 6.42052 9.88573 5.61134 9.83388 4.80694M9.79896 11.5632C9.82007 11.8906 9.84118 12.2181 9.86228 12.5456M9.79896 11.5632L9.86228 12.5456M9.86228 12.5456C9.87165 12.6909 9.88102 12.8362 9.89038 12.9815M9.86228 12.5456L9.89038 12.9815M9.89038 12.9815C9.89585 13.0663 9.93842 13.2189 9.88102 13.2925M9.88102 13.2925C9.84739 13.3356 9.84566 13.3781 9.80766 13.4213C9.78237 13.4501 9.76296 13.4454 9.72497 13.4561C9.55604 13.5035 9.38186 13.5644 9.22019 13.6323C8.84878 13.7883 8.47818 13.9411 8.11819 14.1215C7.89661 14.2326 7.65617 14.2857 7.422 14.3689C7.23208 14.4364 7.05113 14.4907 6.8701 14.5743C6.67959 14.6624 6.49913 14.7685 6.31033 14.8603C6.10948 14.958 5.90642 15.0846 5.69568 15.1564C5.62318 15.1811 5.58209 15.216 5.5071 15.2208C5.4996 15.2213 5.48693 15.2261 5.4955 15.2183M9.88102 13.2925C10.2 13.2925 10.5075 13.3587 10.8239 13.3745C11.4899 13.4078 12.151 13.4318 12.8196 13.4318C13.051 13.4318 13.2674 13.4318 13.5875 13.39C13.6499 13.3678 13.8218 13.4213 13.8609 13.1944C13.8609 12.9562 13.8788 13.0073 13.8609 12.7695C13.818 12.1996 13.934 12.1297 13.8609 11.5632C13.7591 10.7738 13.762 10.0528 13.7449 9.25741C13.7259 8.37534 13.9507 7.15332 13.9548 6.26954C13.9595 5.25884 13.8934 4.47613 13.9548 3.76954C14.0162 3.06295 13.9678 2.44578 13.9678 1.86917C13.9678 1.71103 13.8912 1.78239 13.7449 1.80724C13.4091 1.86427 13.0929 1.99662 12.7478 2.00852C12.3869 2.02096 12.0249 1.99441 11.664 2.01471C11.0943 2.04676 10.5217 2.13646 9.95478 2.2036M5.4955 15.2183C5.58086 15.1405 5.52482 14.9887 5.52716 14.8732C5.53849 14.3142 5.53464 13.7536 5.52348 13.1944C5.50582 12.3092 5.55696 11.4331 5.49982 10.5467C5.43114 9.48106 5.33852 8.41398 5.29522 7.34706C5.23704 5.91359 5.2553 4.47237 5.1631 3.04193M5.4955 15.2183C5.26936 15.1229 5.01292 15.0697 4.77599 14.9772C4.25959 14.7756 3.91672 14.698 3.45889 14.3878C3.19461 14.2088 2.87119 14.1869 2.6052 14.013C2.51348 13.953 2.33952 13.8886 2.33246 13.779C2.32139 13.6072 2.27839 13.3521 2.29391 13.1809C2.33508 12.7264 2.26372 12.4129 2.30015 11.9573C2.29178 11.1433 2.14051 10.3328 2.16641 9.46075C2.18718 8.76162 2.12852 7.96056 2.08356 7.26311C2.01468 6.19445 1.98599 5.12995 1.91711 4.06129C1.88006 3.48656 1.94483 2.83014 1.90779 2.25541C1.89419 2.04444 1.82014 1.80054 1.86512 1.59351M5.1631 3.04193C5.15591 2.93051 5.04584 2.87458 4.97086 2.79625C4.77103 2.5875 4.48892 2.44933 4.22198 2.35288C3.86381 2.22348 3.52732 2.05266 3.17885 1.90562C3.12276 1.88195 1.89891 1.43801 1.86512 1.59351" stroke="black" stroke-linejoin="round"/>
<path d="M6.20332 5.70323C6.63175 5.62046 7.11715 5.62305 7.51115 5.42606C7.77768 5.29279 8.1071 5.28504 8.39649 5.23768C8.50539 5.21987 8.59686 5.17904 8.69654 5.13543C8.73606 5.11814 8.82837 5.07897 8.8432 5.04931" stroke="black" stroke-width="0.25" stroke-linejoin="round"/>
<path d="M6.46973 8.10092C6.93136 7.95218 7.39734 7.81681 7.86367 7.68382C8.08267 7.62136 8.30173 7.55935 8.50952 7.46584C8.6262 7.41334 8.75787 7.30169 8.89164 7.30169" stroke="black" stroke-width="0.25" stroke-linejoin="round"/>
<path d="M6.44551 10.3533C6.65648 10.2657 6.87245 10.1902 7.08866 10.1165C7.33233 10.0335 7.57298 10.0195 7.82062 9.96445C8.01636 9.92095 8.22069 9.84281 8.40726 9.77204C8.50864 9.73359 8.6722 9.65095 8.78266 9.65095C8.81593 9.65095 8.89691 9.62146 8.91586 9.60251" stroke="black" stroke-width="0.25" stroke-linejoin="round"/>
<path d="M6.51817 12.2666C6.92543 12.2406 7.34375 12.0202 7.71836 11.8683C7.90395 11.7931 8.09244 11.7263 8.27674 11.649C8.42587 11.5865 8.58374 11.5124 8.72211 11.4432" stroke="black" stroke-width="0.25" stroke-linejoin="round"/>
<path d="M10.5385 4.10477C10.7628 4.10477 10.9838 4.08055 11.2073 4.08055C11.3654 4.08055 11.5394 4.10234 11.6957 4.07517C11.8024 4.0566 11.9023 4.03211 12.0119 4.03211C12.3393 4.03211 12.7417 4.08887 13.0573 3.98367" stroke="black" stroke-width="0.25" stroke-linejoin="round"/>
<path d="M10.805 6.35715C11.345 6.23565 11.9061 6.26027 12.4613 6.26027C12.5631 6.26027 12.6649 6.26027 12.7667 6.26027C12.8543 6.26027 12.9254 6.21183 13.0089 6.21183" stroke="black" stroke-width="0.25" stroke-linejoin="round"/>
<path d="M10.6596 8.7064C11.4461 8.71666 12.2222 8.8275 13.0089 8.8275" stroke="black" stroke-width="0.25" stroke-linejoin="round"/>
</g>
<defs>
<clipPath id="clip0">
<rect width="16" height="16" fill="white"/>
</clipPath>
</defs>
</svg>
